<?xml version="1.0" encoding="utf-8"?>
<!-- Generator: Adobe Illustrator 24.0.3, SVG Export Plug-In . SVG Version: 6.00 Build 0)  -->
<svg version="1.1" id="Layer_1" xmlns="http://www.w3.org/2000/svg" xmlns:xlink="http://www.w3.org/1999/xlink" x="0px" y="0px"
	 viewBox="0 0 464 88" style="enable-background:new 0 0 464 88;" xml:space="preserve">
<style type="text/css">
	.st0{fill:#40C4FF;}
	.st1{fill-rule:evenodd;clip-rule:evenodd;fill:#40C4FF;}
	.st2{fill:#FFFFFF;}
</style>
<g>
	<g>
		<path class="st0" d="M25.43,83.21c-5.71-6.43-11.02-23.42-11.02-23.42l0,0c0,0,6.15-4.06,12.83-7.02
			c-0.91-2.69-1.43-5.19-1.82-7.28c-2.05,1.36-5.3,2.91-7.18,3.84C6.3,55.25,0.01,52.39,0.01,52.39s0.56,0.27,1.46,0.72
			c2.17,1.31,6.27,5.17,9.36,12.69l8.78,18.61c0.04,0.04,0.08,0.07,0.11,0.1l10.54,2.17C28.36,85.74,26.7,84.59,25.43,83.21z"/>
		<path class="st0" d="M1.42,53.08c-0.87-0.43-1.41-0.69-1.41-0.69S0.58,52.58,1.42,53.08z"/>
	</g>
	<g>
		<path class="st0" d="M34.98,78.82c-3.29-3.7-7.29-13.35-7.29-13.35s1.84-1.09,4.47-2.38c-0.9-1.14-1.74-2.29-2.48-3.42
			c-6.71,3.25-10.21,1.78-10.21,1.78s0.26,0.12,0.68,0.31c0.99,0.6,2.99,2.35,5.34,7.4l4.77,9.89c0.08,0.08,0.17,0.17,0.26,0.25
			l6.8,1.56C36.45,80.25,35.66,79.56,34.98,78.82z"/>
		<path class="st0" d="M20.13,61.75c-0.4-0.18-0.65-0.29-0.65-0.29S19.71,61.5,20.13,61.75z"/>
	</g>
</g>
<g>
	<g>
		<path class="st0" d="M144.05,52.39c0,0-6.29,2.86-18.24-3.07c-1.88-0.93-5.14-2.48-7.18-3.84c-0.39,2.09-0.91,4.59-1.82,7.28
			c6.68,2.96,12.83,7.02,12.83,7.02l0,0c0,0-5.3,16.99-11.01,23.42c-1.26,1.39-2.92,2.53-4.83,3.48l10.54-2.17
			c0.04-0.04,0.07-0.07,0.11-0.1l8.78-18.61c3.09-7.52,7.19-11.38,9.36-12.69C143.49,52.67,144.05,52.39,144.05,52.39z"/>
		<path class="st0" d="M142.64,53.08c0.87-0.43,1.41-0.69,1.41-0.69S143.48,52.58,142.64,53.08z"/>
	</g>
	<g>
		<path class="st0" d="M124.59,61.46c0,0-3.5,1.47-10.21-1.78c-0.74,1.13-1.57,2.28-2.48,3.42c2.63,1.29,4.47,2.38,4.47,2.38
			s-4,9.65-7.29,13.35c-0.67,0.74-1.47,1.42-2.34,2.05l6.8-1.56c0.09-0.08,0.18-0.16,0.26-0.25l4.77-9.89
			c2.35-5.05,4.34-6.8,5.34-7.4C124.33,61.58,124.59,61.46,124.59,61.46z"/>
		<path class="st0" d="M123.94,61.75c0.4-0.18,0.65-0.29,0.65-0.29S124.35,61.5,123.94,61.75z"/>
	</g>
</g>
<path class="st1" d="M112.66,35c0,0-39.82-19.84-40.72-33.72c0,0.02,0,0.05,0,0.07c0-0.02,0-0.05,0-0.07
	C71.04,15.16,31.21,35,31.21,35s-4.8,21.69,13.41,39.19l0.47-0.21c-9.84-10.57-12.53-22.35-4.77-30.36l31.61-18.7c0,0,0-0.06,0-0.17
	c0,0.11,0,0.17,0,0.17l31.61,18.7c7.76,8.02,5.07,19.8-4.77,30.36l0.47,0.21C117.46,56.69,112.66,35,112.66,35z"/>
<path class="st0" d="M91.29,65.89v8.75c0,2.21-0.78,4.09-2.35,5.64c-1.57,1.55-3.47,2.32-5.7,2.32H60.06c-2.23,0-4.13-0.77-5.7-2.32
	c-1.57-1.55-2.35-3.43-2.35-5.64V51.7c0-2.18,0.78-4.04,2.35-5.59c1.57-1.55,3.46-2.34,5.7-2.37h23.19c1.17,0,2.25,0.23,3.25,0.69
	c0.3,0.13,0.48,0.36,0.52,0.67c0.05,0.31-0.04,0.57-0.27,0.77l-1.35,1.38c-0.2,0.16-0.42,0.25-0.65,0.25l-0.25-0.05
	c-0.43-0.1-0.85-0.15-1.25-0.15H60.06c-1.23,0-2.28,0.43-3.15,1.29c-0.87,0.86-1.32,1.9-1.35,3.11v22.94c0,1.22,0.45,2.26,1.35,3.12
	c0.9,0.86,1.95,1.3,3.15,1.33h23.19c1.23,0,2.28-0.44,3.15-1.33c0.87-0.89,1.3-1.93,1.3-3.12v-6.97c0-0.26,0.08-0.48,0.25-0.64
	l1.8-1.73c0.2-0.2,0.42-0.3,0.65-0.3c0.1,0,0.22,0.03,0.35,0.1C91.1,65.24,91.29,65.5,91.29,65.89z M91.39,58.66L75,74.85
	c-0.43,0.46-0.95,0.69-1.55,0.69s-1.13-0.23-1.6-0.69L59.85,62.98c-0.47-0.43-0.7-0.94-0.7-1.53c0-0.59,0.23-1.12,0.7-1.58
	l3.05-3.07c0.47-0.43,1-0.64,1.6-0.64s1.13,0.22,1.6,0.64l7.35,7.27l11.69-11.59c0.43-0.43,0.95-0.64,1.55-0.64
	c0.6,0,1.13,0.21,1.6,0.64l3.1,3.02c0.43,0.46,0.65,0.99,0.65,1.58C92.04,57.67,91.82,58.2,91.39,58.66z"/>
<g>
	<path class="st0" d="M194,19.22l-7.4,25.67h-6.02l-2.28-7.11l-0.91-5.87h-0.11l-0.98,5.84l-2.03,7.14h-6.02l-7.43-25.67h6.74
		l3.05,12.29l0.65,5.44h0.18l0.62-5.4l2.86-8.99h4.93l2.65,9.03l0.83,5.37h0.11l0.73-5.37l3.12-12.36H194z"/>
	<path class="st0" d="M208.58,44.89l-1.67-5.15h-6.85l-1.6,5.15h-6.96l8.95-25.67h5.91l9.17,25.67H208.58z M203.57,26.48h-0.18
		l-1.88,7.5h3.84L203.57,26.48z"/>
	<path class="st0" d="M223.8,36.73v8.16h-6.56V19.22h10.26c5.29,0,9.39,2.43,9.53,8.45c0,4.75-1.92,7.43-5.04,8.41l7,8.81h-8.08
		l-5.95-8.16H223.8z M227.61,25.28h-3.81v5.87h3.81C231.7,31.15,231.7,25.28,227.61,25.28z"/>
	<path class="st0" d="M257.12,29.99v6.05h-9.9v8.85h-6.56V19.22h17.87v6.16h-11.31v4.6H257.12z"/>
	<path class="st0" d="M268.1,36.73v8.16h-6.56V19.22h10.26c5.29,0,9.39,2.43,9.53,8.45c0,4.75-1.92,7.43-5.04,8.41l7,8.81h-8.08
		l-5.95-8.16H268.1z M271.91,25.28h-3.81v5.87h3.81C276,31.15,276,25.28,271.91,25.28z"/>
	<path class="st0" d="M299.79,44.89l-1.67-5.15h-6.85l-1.6,5.15h-6.96l8.95-25.67h5.91l9.17,25.67H299.79z M294.78,26.48h-0.18
		l-1.89,7.5h3.84L294.78,26.48z"/>
	<path class="st0" d="M314.94,19.22l5.4,12.54l5.44-12.54h6.49v25.67h-6.53l0.04-7.4l0.4-5.18l-0.22-0.04l-3.37,8.81h-4.46
		l-3.44-8.81l-0.18,0.04l0.43,5.18v7.4h-6.49V19.22H314.94z"/>
	<path class="st0" d="M353.29,29.3v5.62h-10.4v3.84h11.31v6.13h-17.87V19.22h17.87v6.09h-11.31v3.99H353.29z"/>
</g>
<g>
	<path class="st2" d="M174.53,56.12l5.4,12.54l5.44-12.54h6.49v25.67h-6.53l0.04-7.4l0.4-5.18l-0.22-0.04l-3.37,8.81h-4.46
		l-3.44-8.81l-0.18,0.04l0.44,5.18v7.4h-6.49V56.12H174.53z"/>
	<path class="st2" d="M210.75,81.79l-1.67-5.15h-6.85l-1.6,5.15h-6.96l8.95-25.67h5.91l9.17,25.67H210.75z M205.74,63.37h-0.18
		l-1.88,7.5h3.84L205.74,63.37z"/>
	<path class="st2" d="M230.29,74.18c0.07-1.45-2.28-2.28-4.39-2.57c-4.13-0.65-7.9-3.26-7.9-8.16c0-5.04,4.57-7.69,9.28-7.69
		c3.12,0,6.13,0.87,8.77,4.1l-4.24,3.26c-2.68-2.86-7.29-2.76-7.4,0.22c0.07,1.23,1.41,1.96,3.41,2.39
		c4.57,0.83,9.14,2.43,8.85,8.74c-0.22,4.97-5.44,7.68-10.15,7.68c-3.08,0-6.34-1.56-8.74-4.64l4.1-3.84
		C224.45,76.79,230.11,76.93,230.29,74.18z"/>
	<path class="st2" d="M251.31,81.79h-6.56V62.25h-6.82v-6.16h20.19v6.16h-6.81V81.79z"/>
	<path class="st2" d="M277.63,66.2v5.62h-10.4v3.84h11.31v6.13h-17.87V56.12h17.87v6.09h-11.31v3.99H277.63z"/>
	<path class="st2" d="M288.54,73.63v8.16h-6.56V56.12h10.26c5.29,0,9.39,2.43,9.53,8.45c0,4.75-1.92,7.43-5.04,8.41l7,8.81h-8.08
		l-5.95-8.16H288.54z M292.35,62.18h-3.81v5.87h3.81C296.45,68.05,296.45,62.18,292.35,62.18z"/>
	<path class="st2" d="M310.51,71.68l-8.95-15.55h7.54l4.64,9.43l4.64-9.43h7.61L317,71.68v10.11h-6.49V71.68z"/>
	<path class="st2" d="M333.02,81.79V56.12h6.53v9.72h7.4v-9.72h6.53v25.67h-6.53v-9.68h-7.4v9.68H333.02z"/>
	<path class="st2" d="M374.5,66.2v5.62h-10.4v3.84h11.31v6.13h-17.87V56.12h17.87v6.09h-11.31v3.99H374.5z"/>
	<path class="st2" d="M385.37,56.12v19.25h10.44v6.42h-16.97V56.12H385.37z"/>
	<path class="st2" d="M408.65,56.12c6.27,0,9.39,4.53,9.39,9.06c0,4.57-3.15,9.1-9.35,9.1h-3.81v7.5h-6.49V56.12H408.65z
		 M408.65,62.18h-3.77v6.34h3.77C412.56,68.56,412.56,62.14,408.65,62.18z"/>
	<path class="st2" d="M437.76,66.2v5.62h-10.4v3.84h11.31v6.13h-17.87V56.12h17.87v6.09h-11.31v3.99H437.76z"/>
	<path class="st2" d="M448.67,73.63v8.16h-6.56V56.12h10.26c5.29,0,9.39,2.43,9.53,8.45c0,4.75-1.92,7.43-5.04,8.41l7,8.81h-8.08
		l-5.95-8.16H448.67z M452.47,62.18h-3.81v5.87h3.81C456.57,68.05,456.57,62.18,452.47,62.18z"/>
</g>
</svg>
